<svg width="88" height="22" fill="none" xmlns="http://www.w3.org/2000/svg"><path d="M31.313 15.26h2.826c1.707 0 2.91-.997 2.91-2.416 0-1.059-.77-1.84-1.9-1.997.89-.18 1.54-.89 1.54-1.756 0-1.455-1.167-2.369-3.031-2.369h-2.346v8.539Zm1.058-1.033v-2.79h1.768c1.058 0 1.804.54 1.804 1.407 0 .853-.746 1.383-1.804 1.383H32.37Zm0-3.825V7.756h1.287c1.178 0 1.924.517 1.924 1.335 0 .806-.746 1.311-1.924 1.311H32.37ZM39.32 13.565c0-.914.77-.902 1.709-1.082l1.49-.277v.421c0 1.179-.817 1.864-1.851 1.912-.926.048-1.347-.48-1.347-.974Zm-1.082 0c0 1.143 1.035 1.816 2.297 1.84.998-.024 1.744-.54 2.02-1.118l.037.974h.938v-3.849c0-1.78-1.034-2.67-2.574-2.67-1.323 0-2.357.806-2.61 2.021l1.119.084c.156-.65.721-1.118 1.491-1.118.926 0 1.528.517 1.54 1.575l-1.852.337c-1.407.252-2.406.577-2.406 1.924ZM49.048 10.86l1.035-.073c-.205-1.239-1.227-2.044-2.562-2.044-1.299 0-2.453.721-2.453 2.02 0 1.179 1.25 1.588 2.405 1.864.674.156 1.563.253 1.563.95 0 .674-.733.842-1.407.842-.878 0-1.563-.481-1.695-1.239l-1.07.072c.096 1.323 1.298 2.153 2.765 2.153 1.251 0 2.49-.517 2.49-1.768 0-1.226-1.275-1.611-2.466-1.912-.673-.18-1.503-.325-1.503-1.022 0-.65.613-.974 1.263-.974.806 0 1.491.42 1.636 1.13ZM54 15.405c1.227 0 2.31-.745 2.682-1.948l-1.106-.084a1.704 1.704 0 0 1-1.575 1.046c-1.083 0-1.732-.746-1.828-2.02h4.606v-.445l-.012-.024C56.658 9.645 55.396 8.743 54 8.743c-1.768 0-2.923 1.298-2.923 3.33 0 2.033 1.155 3.332 2.923 3.332Zm-1.803-3.92c.168-1.107.805-1.756 1.804-1.756.757 0 1.467.433 1.647 1.756h-3.451ZM58.047 15.26h1.058v-3.775h3.897v3.776h1.058V6.722h-1.058v3.728h-3.897V6.722h-1.058v8.539ZM70.73 15.26V8.888h-1.035v3.8c0 1.179-.661 1.804-1.635 1.804-.914 0-1.3-.625-1.3-1.804v-3.8h-1.033v4.1c0 1.348.697 2.418 2.116 2.418.83 0 1.564-.373 1.9-1.19v1.046h.987ZM72.34 6.722v8.539h.938l.036-.89c.35.65 1.023 1.034 2.008 1.034 1.853 0 2.695-1.587 2.695-3.331s-.842-3.331-2.695-3.331c-.937 0-1.587.336-1.947.962V6.722H72.34Zm.938 5.352c0-1.227.517-2.393 1.828-2.393 1.323 0 1.828 1.154 1.828 2.393 0 1.19-.505 2.345-1.828 2.345-1.31 0-1.828-1.167-1.828-2.345Z" fill="#131316"/><mask id="a" style="mask-type:luminance" maskUnits="userSpaceOnUse" x="10" y="1" width="16" height="20"><path d="M22.293 1h-9.108A3.185 3.185 0 0 0 10 4.185v13.63A3.185 3.185 0 0 0 13.185 21h9.108a3.185 3.185 0 0 0 3.185-3.185V4.185A3.185 3.185 0 0 0 22.293 1Z" fill="#fff"/></mask><g mask="url(#a)"><path d="M22.293 1h-9.108A3.185 3.185 0 0 0 10 4.185v13.63A3.185 3.185 0 0 0 13.185 21h9.108a3.185 3.185 0 0 0 3.185-3.185V4.185A3.185 3.185 0 0 0 22.293 1Z" fill="#5E5F6E"/><path d="M36.922 4.16 15.48 25.6l1.14 1.14L38.062 5.3l-1.14-1.14Z" fill="#5E5F6E"/><path opacity=".5" d="M36.922 1.902 15.48 23.342l1.14 1.141 21.441-21.44-1.14-1.141Z" fill="#131316"/><path opacity=".4" d="M34.66 1.902 13.22 23.342l1.14 1.141 21.442-21.44-1.14-1.141Z" fill="#131316"/><path opacity=".35" d="m32.418 1.902-21.441 21.44 1.14 1.141 21.441-21.44-1.14-1.141Z" fill="#131316"/><path opacity=".3" d="M31.77.288 10.328 21.729l1.14 1.14L32.91 1.43 31.77.287Z" fill="#131316"/><path opacity=".25" d="M31.441-1.647 10 19.793l1.14 1.141L32.582-.506l-1.14-1.141Z" fill="#131316"/><path opacity=".2" d="M30.465-2.938 9.023 18.504l1.14 1.14L31.606-1.797l-1.14-1.14Z" fill="#131316"/><path opacity=".15" d="M28.219-2.938 6.777 18.504l1.14 1.14L29.36-1.797l-1.14-1.14Z" fill="#131316"/><path opacity=".1" d="M25.957-2.938 4.516 18.504l1.14 1.14L27.097-1.797l-1.14-1.14Z" fill="#131316"/></g><path d="M22.27 1.484h-9.108a2.7 2.7 0 0 0-2.701 2.7v13.631a2.7 2.7 0 0 0 2.7 2.701h9.11a2.7 2.7 0 0 0 2.7-2.7V4.184a2.7 2.7 0 0 0-2.7-2.701Z" stroke="#131316" stroke-width="1.128"/></svg>