<svg xmlns="http://www.w3.org/2000/svg" width="88" height="22" fill="none">
  <path fill="#131316" fill-rule="evenodd"
    d="M33.437 17.423V7.827h-2.3l-.11 1.047c-.744-.895-1.817-1.353-3.043-1.353-2.716 0-4.709 2.312-4.709 5.126 0 2.508 1.73 5.103 4.687 5.103 1.27 0 2.321-.48 3.066-1.374l.11 1.047h2.299ZM28.4 9.986c1.358 0 2.584 1.003 2.584 2.639 0 1.57-1.139 2.66-2.584 2.66-1.599 0-2.628-1.286-2.628-2.682A2.63 2.63 0 0 1 28.4 9.986Zm15.264 7.459v-5.191c0-3.751-1.665-4.645-3.526-4.645-1.161 0-2.124.458-2.825 1.2l-.088-.96h-2.3v9.596h2.453v-5.191c0-1.44.723-2.268 1.95-2.268 1.226 0 1.86.589 1.86 2.268v5.19h2.475Zm11.015-.022V4.25h-2.41v4.558c-.744-.85-1.795-1.287-3-1.287-2.715 0-4.708 2.312-4.708 5.126 0 2.508 1.709 5.103 4.687 5.103 1.27 0 2.321-.48 3.065-1.374l.11 1.047h2.256Zm-4.993-7.437c1.358 0 2.584 1.003 2.584 2.639 0 1.57-1.117 2.66-2.584 2.66-1.599 0-2.628-1.286-2.628-2.682a2.63 2.63 0 0 1 2.628-2.617Zm11.059-2.443c-2.847 0-5.147 2.29-5.147 5.104 0 2.813 2.322 5.103 5.147 5.103s5.124-2.29 5.124-5.103a5.107 5.107 0 0 0-5.124-5.104Zm0 2.443c1.467 0 2.65 1.2 2.65 2.66 0 1.462-1.183 2.64-2.65 2.661-1.49 0-2.672-1.2-2.672-2.66a2.677 2.677 0 0 1 2.672-2.661Zm11.54.152.394-2.704c-1.16.022-2.496.48-3.437 1.701L69.11 7.85h-2.3v9.596h2.475v-3.991c0-2.901 1.599-3.316 2.672-3.316h.329ZM20.146 7.522C17.3 7.521 15 9.811 15 12.646c0 2.814 2.3 5.104 5.124 5.104 1.27 0 2.431-.458 3.329-1.221l-1.49-1.963c-.459.458-1.116.72-1.817.72-1.489 0-2.671-1.2-2.671-2.661a2.663 2.663 0 0 1 2.671-2.661c.701 0 1.336.262 1.818.72l1.38-2.05a5.122 5.122 0 0 0-3.198-1.113Z"
    clip-rule="evenodd" />
</svg>
