<svg width="88" height="22" fill="none" xmlns="http://www.w3.org/2000/svg"><path d="M75.539 3.058c-1.72.996-1.016 3.458.996 3.458 1.036 0 1.622-.371 1.915-1.25.371-1.173-.371-2.228-1.7-2.384-.43-.059-.938.02-1.211.176ZM49.024 3.996l.508.605v4.924c0 4.025-.059 5.002-.293 5.315-.157.195-.293.43-.293.508 0 .098 1.094.156 2.442.156s2.442-.058 2.442-.156c0-.078-.136-.313-.293-.508-.234-.313-.293-1.348-.293-5.92V3.39h-4.728l.508.606ZM.098 4.27c0 .058.176.273.39.488.372.37.391.644.391 5.119 0 4.63 0 4.729-.45 5.197l-.429.47 3.81-.098c4.123-.098 4.631-.196 6.233-1.153.782-.489 1.212-.918 1.661-1.72.547-.976.606-1.23.606-2.735 0-1.329-.098-1.817-.43-2.442-.899-1.661-2.423-2.638-4.748-3.01C5.862 4.172.098 4.093.098 4.27Zm6.584.976c.86.567 1.29 1.778 1.388 3.908.156 3.537-.625 5.432-2.345 5.706l-.742.117V4.699l.625.137c.352.058.82.254 1.074.41ZM35.827 5.266c-.489.781-1.837 1.739-2.95 2.07-.743.216-.997.548-.45.548.254 0 .293.43.293 2.735 0 3.674.313 4.397 2.11 4.866.977.273 2.052.039 2.873-.606.82-.645 1.64-2.697 1.074-2.697-.098 0-.234.216-.312.47-.157.664-.743 1.133-1.29 1.055-.45-.059-.45-.098-.508-2.95l-.059-2.873h1.095c.82 0 1.074-.059 1.074-.293 0-.235-.254-.293-1.074-.293h-1.075v-1.25c0-.704-.078-1.31-.176-1.369-.098-.078-.371.196-.625.587ZM70.765 7.102c-.45.508-.567.567-1.016.391-.274-.117-1.192-.195-2.032-.195-1.212 0-1.7.097-2.384.45-1.602.84-1.935 2.52-.743 3.75l.547.587-.664.547c-1.035.82-1.172 2.384-.293 3.263.45.45.488.586.137.586-.43 0-.958.723-.88 1.212.196 1.465 5.55 1.797 7.875.488 1.114-.625 1.563-1.348 1.563-2.481 0-.743-.098-1.055-.489-1.466-.82-.879-1.172-.957-4.103-1.074-2.344-.079-2.833-.157-2.833-.391 0-.235.274-.274 1.583-.215 1.895.078 3.497-.332 4.162-1.036.312-.332.488-.8.566-1.446.059-.8 0-1.016-.43-1.543-.547-.665-.41-1.016.274-.645.254.137.39.41.39.782 0 .449.079.586.391.586.978 0 1.505-1.388.86-2.306-.234-.332-.488-.43-1.153-.43-.703 0-.938.098-1.328.586Zm-2.599 1.016c.176.704.137 3.01-.078 3.576-.098.274-.274.45-.391.39-.215-.136-.273-4.063-.059-4.259.235-.234.41-.136.528.293Zm2.071 8.852c.371.45-.234 1.211-1.114 1.407-2.5.527-4.806-.391-3.732-1.466.372-.371 4.533-.313 4.846.059ZM83.079 7.122c-.997.234-1.68.606-2.442 1.368-1.798 1.758-1.818 4.044-.06 5.842 1.505 1.563 3.186 1.759 5.257.586 1.31-.762 1.973-1.778 2.13-3.204.058-.606.039-1.095-.059-1.095-.098.02-.352.391-.567.84-.468.997-1.524 1.603-2.442 1.408-.664-.137-1.758-.977-1.758-1.33 0-.136.84-.703 1.856-1.289 1.016-.566 1.915-1.113 1.973-1.23.157-.235-.82-1.27-1.485-1.603-.723-.371-1.563-.469-2.403-.293Zm-.04 1.973c.372.567.685 1.095.685 1.153 0 .078-.215.274-.489.45-.469.312-.488.312-.977-.665-.996-1.954-.39-2.677.782-.938ZM15.724 7.513c-1.759.801-2.736 2.208-2.736 3.927.02 1.778.997 3.302 2.58 3.947 2.598 1.094 6.018-1.114 6.018-3.888 0-.489-.078-.88-.196-.88-.098 0-.195.157-.195.372 0 .918-1.583 2.09-2.56 1.895-.703-.137-1.504-.645-1.758-1.114-.157-.312.078-.508 1.875-1.563l2.052-1.192-.41-.566c-.919-1.29-2.97-1.7-4.67-.938Zm.645 1.192c.254.351.625.879.8 1.172.333.508.333.528-.234.82l-.547.294-.527-1.075c-.293-.586-.528-1.23-.528-1.446 0-.586.508-.469 1.036.235ZM21.927 7.434c-.078.06.039.235.254.391.37.254.39.508.39 3.557 0 2.696-.058 3.34-.293 3.536-.156.137-.293.313-.293.41 0 .098 1.153.176 2.58.176h2.56l-.372-.41c-.332-.352-.371-.723-.371-2.931 0-2.13.058-2.56.351-2.853.254-.273.41-.293.684-.136.274.195.332.605.391 2.852.04 2.17 0 2.677-.254 2.892-.156.137-.293.313-.293.41 0 .098 1.153.176 2.58.176H32.4l-.371-.41c-.313-.352-.391-.82-.47-3.38-.058-1.876-.195-3.107-.351-3.38-.41-.724-1.329-1.095-2.52-.997-.86.078-1.173.215-1.72.742l-.684.665V7.298h-2.11c-1.173 0-2.189.058-2.247.136ZM41.503 7.845c-2.013 1.055-2.794 3.439-1.798 5.412.508.997.919 1.348 2.11 1.876 2.228.977 5.061.254 6.214-1.622.45-.742.567-1.133.567-2.071 0-2.54-1.778-4.123-4.65-4.142-1.154 0-1.583.097-2.443.547Zm2.95.351c.117.274.196 1.72.196 3.205 0 2.794-.176 3.712-.665 3.712-.566 0-.703-.762-.703-3.712 0-1.661.098-3.126.195-3.341.293-.528.762-.47.977.136Z" fill="#131316"/><path d="M56.196 7.806c-3.048 1.524-3.048 5.647 0 7.17 2.306 1.154 5.237.509 6.448-1.387.47-.761.567-1.094.567-2.168 0-2.58-1.759-4.123-4.65-4.123-1.056 0-1.544.117-2.365.508Zm2.912.39c.117.274.195 1.72.195 3.205 0 2.794-.176 3.713-.664 3.713-.567 0-.704-.763-.704-3.713 0-1.66.098-3.126.196-3.341.293-.528.762-.47.977.137ZM73.95 7.434c0 .06.156.294.351.509.293.332.332.8.332 3.556 0 2.852-.039 3.224-.371 3.595l-.371.41h2.56c1.426 0 2.579-.078 2.579-.176 0-.097-.137-.273-.294-.41-.234-.195-.293-.899-.293-3.927V7.298h-2.247c-1.23 0-2.247.058-2.247.136Z" fill="#131316"/></svg>