<svg xmlns="http://www.w3.org/2000/svg" width="88" height="22" fill="none">
  <path fill="#131316"
    d="M1 7.665c0-.588.377-.917.882-.917s.882.33.882.917v2.493h3.692V7.665c0-.588.376-.917.881-.917.506 0 .882.33.882.917v6.673c0 .588-.376.916-.882.916-.505 0-.881-.329-.881-.916v-2.561H2.763v2.56c0 .588-.376.917-.881.917S1 14.925 1 14.338V7.665ZM23.575 7.665c0-.588.375-.917.882-.917a1.1 1.1 0 0 1 .74.388l3.727 4.977h.024V7.665c0-.588.375-.917.882-.917s.882.33.882.917v6.673c0 .588-.377.916-.882.916a1.128 1.128 0 0 1-.742-.387L25.361 9.95h-.027v4.387c0 .588-.377.916-.882.916s-.882-.329-.882-.916l.005-6.673ZM34.87 7.838c0-.588.294-1.023.916-1.023h3.553a.782.782 0 0 1 .834.812.799.799 0 0 1-.514.762.796.796 0 0 1-.32.05h-2.701v1.716h2.564a.795.795 0 0 1 .858.812.809.809 0 0 1-.858.81h-2.569v1.787h2.81a.786.786 0 0 1 .836.812.789.789 0 0 1-.515.762.796.796 0 0 1-.32.05h-3.669a.856.856 0 0 1-.905-.883V7.838ZM45.86 11.26l-2.224-3.128a.944.944 0 0 1-.16-.53.841.841 0 0 1 .52-.794.837.837 0 0 1 .328-.063.868.868 0 0 1 .729.352l1.692 2.458 1.694-2.458a.863.863 0 0 1 .729-.352.84.84 0 0 1 .847.858.931.931 0 0 1-.16.529l-2.224 3.128v3.14c0 .435-.259.857-.881.857-.623 0-.882-.422-.882-.858l-.008-3.139ZM53.43 7.665c0-.588.375-.917.881-.917.508 0 .882.329.882.917v5.902h2.093a.794.794 0 0 1 .846.847.824.824 0 0 1-.846.777h-2.94c-.576 0-.916-.377-.916-.965V7.665ZM64.723 6.675a4.326 4.326 0 1 0 0 8.651 4.326 4.326 0 0 0 0-8.651Zm0 7.03c-1.419 0-2.57-1.21-2.57-2.7 0-1.49 1.151-2.702 2.57-2.702 1.418 0 2.569 1.211 2.569 2.701s-1.15 2.698-2.57 2.698v.003ZM71.562 8.027a1.11 1.11 0 0 1-.081-.435.88.88 0 0 1 .905-.847c.399 0 .647.259.795.577l1.822 4.89 1.822-4.89c.16-.318.4-.577.794-.577a.88.88 0 0 1 .906.847c.002.149-.026.297-.083.435l-2.569 6.549c-.159.377-.35.681-.869.681-.517 0-.718-.304-.87-.681l-2.572-6.549ZM15.914 6.675a4.326 4.326 0 1 0 .003 8.652 4.326 4.326 0 0 0-.003-8.652Zm0 7.03c-1.418 0-2.569-1.21-2.569-2.7 0-1.49 1.15-2.701 2.57-2.701 1.418 0 2.568 1.21 2.568 2.7 0 1.49-1.15 2.698-2.569 2.698v.003ZM81.993 7.838c0-.587.294-1.023.916-1.023h3.551a.782.782 0 0 1 .836.812.789.789 0 0 1-.24.588.793.793 0 0 1-.596.224h-2.7v1.716h2.563a.793.793 0 0 1 .859.812.81.81 0 0 1-.859.81h-2.567v1.787h2.81a.783.783 0 0 1 .835.812.794.794 0 0 1-.834.812h-3.669a.855.855 0 0 1-.905-.883V7.838Z" />
</svg>
