<svg width="88" height="22" fill="none" xmlns="http://www.w3.org/2000/svg"><path fill-rule="evenodd" clip-rule="evenodd" d="M14.557 3.437c-.371.292-.557.7-.557 1.225 0 .519.186.924.557 1.215a2.06 2.06 0 0 0 1.31.437c.497 0 .93-.147 1.298-.441.368-.295.552-.698.552-1.211 0-.525-.184-.933-.552-1.225A2.028 2.028 0 0 0 15.867 3c-.502 0-.94.146-1.31.437Zm2.959 3.647h-3.314v8.702h3.314V7.084Zm.749 8.702v-8.85h2.92l.148.97a3.177 3.177 0 0 1 1.29-.91c.473-.18.946-.27 1.42-.27h.087c.392.005.753.05 1.083.135.33.085.644.227.942.429.298.2.553.457.763.77.21.311.377.706.5 1.184s.184 1.023.184 1.636v4.906h-3.305v-4.889c0-.507-.12-.879-.36-1.115a1.213 1.213 0 0 0-.885-.354c-.427 0-.788.147-1.083.441-.295.295-.443.716-.443 1.264v4.653h-3.261Zm9.963-8.85v8.85h3.262v-4.653c0-.548.147-.97.443-1.264a1.475 1.475 0 0 1 1.082-.441c.351 0 .646.118.886.354s.36.608.36 1.115v4.889h3.304V10.88a6.6 6.6 0 0 0-.184-1.636c-.122-.478-.289-.873-.5-1.185a2.817 2.817 0 0 0-.762-.77 3.012 3.012 0 0 0-.943-.428 4.642 4.642 0 0 0-1.082-.135h-.088c-.473 0-.947.09-1.42.27a3.176 3.176 0 0 0-1.289.91l-.15-.97H28.23Zm9.922 4.263c0-.904.22-1.702.662-2.396a4.314 4.314 0 0 1 1.78-1.587c.745-.365 1.576-.547 2.494-.547.62 0 1.23.11 1.832.332l.721-.911c.097-.124.176-.226.235-.304l1.527.373.857 1.332-1.148 1.356c.567.63.85 1.367.85 2.212v.175a3.517 3.517 0 0 1-.438 1.618c-.28.519-.675.959-1.183 1.32.38.216.697.458.95.726.255.268.435.532.54.792.105.26.174.473.206.643.032.169.048.338.048.507 0 .554-.093 1.055-.28 1.504-.187.449-.44.822-.759 1.12a4.263 4.263 0 0 1-1.13.747c-.436.201-.89.346-1.364.433a8.25 8.25 0 0 1-1.5.131c-1.583 0-2.796-.387-3.637-1.163-.76-.7-1.14-1.635-1.14-2.807 0-.123.003-.248.008-.376h3.104v.061c0 .287.035.531.106.733l.017.045c.082.233.206.408.372.525.167.117.344.198.53.245.188.046.401.07.64.07.463 0 .851-.11 1.167-.328.315-.219.473-.532.473-.94 0-.356-.127-.642-.381-.857-.245-.208-.63-.315-1.16-.323h-.063c-1.496 0-2.693-.403-3.59-1.208-.897-.804-1.346-1.889-1.346-3.253Zm3.704 1.242c-.324-.318-.486-.737-.486-1.255 0-.572.16-1.02.482-1.343.321-.323.733-.485 1.236-.485.48 0 .878.178 1.197.533.318.356.477.787.477 1.295 0 .56-.16.988-.482 1.285-.321.297-.719.446-1.192.446-.497 0-.907-.159-1.232-.476Zm6.586-1.063c0-.624.095-1.197.285-1.718.19-.522.444-.961.762-1.317.319-.355.69-.657 1.114-.905.424-.248.87-.428 1.337-.542.467-.114.947-.17 1.438-.17.789 0 1.506.126 2.152.38.646.254 1.182.62 1.609 1.097.426.479.721 1.062.885 1.75.07.291.105.597.106.917v.097c0 .414-.05.857-.15 1.33H51.78c.111.36.365.64.763.835.397.195.803.293 1.218.293.877 0 1.637-.24 2.28-.718l1.613 1.81c-.52.485-1.13.85-1.828 1.098a6.571 6.571 0 0 1-2.214.372c-.719 0-1.383-.09-1.994-.271a5.034 5.034 0 0 1-1.635-.818 3.724 3.724 0 0 1-1.131-1.447c-.275-.6-.412-1.292-.412-2.073Zm6.575-1.198h-3.218a1.07 1.07 0 0 1 .408-.69c.231-.188.498-.301.802-.342a3.335 3.335 0 0 1 .895.009c.298.046.553.161.767.345.213.184.329.41.346.678Zm3.127 4.679 1.078-2.405c.415.268.84.48 1.272.634.432.154.77.248 1.012.28.243.032.528.056.855.074.602 0 .903-.143.903-.429 0-.274-.313-.437-.938-.49a6.977 6.977 0 0 1-1.065-.113 4.85 4.85 0 0 1-1.022-.315 3.42 3.42 0 0 1-.88-.538 2.384 2.384 0 0 1-.606-.817 2.618 2.618 0 0 1-.232-1.12c0-.513.114-.962.342-1.347a2.45 2.45 0 0 1 .93-.905c.39-.218.823-.38 1.297-.485a7.04 7.04 0 0 1 1.525-.157c.708 0 1.38.096 2.017.288.637.193 1.175.455 1.613.787L64.84 9.77c-.225-.143-.542-.265-.948-.366l-.078-.019a4.784 4.784 0 0 0-1.148-.157h-.053c-.526 0-.789.145-.789.437 0 .105.051.201.154.289.095.081.25.127.465.138l.047.002c.41.011.79.043 1.14.096.35.052.712.145 1.083.28.371.134.688.306.951.516.263.21.478.488.645.835.166.347.25.745.25 1.193 0 .426-.075.81-.224 1.15-.15.341-.352.626-.61.853a3.445 3.445 0 0 1-.92.573 4.875 4.875 0 0 1-1.127.332c-.394.067-.81.1-1.249.1a9.3 9.3 0 0 1-2.367-.31c-.79-.207-1.429-.49-1.92-.852Zm8.572-7.871v2.527h1.42v3.052c-.006.479.044.907.15 1.286.116.42.274.762.473 1.027.198.266.441.484.727.656.287.172.588.293.903.363.316.07.658.105 1.026.105 1.005 0 1.856-.198 2.551-.594l-.719-2.44a1.758 1.758 0 0 1-.964.306c-.573 0-.868-.286-.885-.857V9.515h2.016V6.988h-1.999V4.434l-3.279.359v2.195h-1.42Z" fill="#131316"/></svg>