<svg fill="none" height="20" viewBox="0 0 88 20" width="88" xmlns="http://www.w3.org/2000/svg" xmlns:xlink="http://www.w3.org/1999/xlink"><g fill="#000"><path d="m4.7021.196777c-.86561 0-1.56733.701724-1.56733 1.567343 0 .86562.70172 1.56734 1.56733 1.56734h13.4344c.8656 0 1.5673-.70172 1.5673-1.56734 0-.865619-.7017-1.567343-1.5673-1.567343z"/><path d="m3.13477 9.82466c0-.86561.70172-1.56734 1.56733-1.56734h13.4344c.8656 0 1.5673.70173 1.5673 1.56734 0 .86564-.7017 1.56734-1.5673 1.56734h-13.4344c-.86561 0-1.56733-.7017-1.56733-1.56734z"/><path d="m3.13477 17.8854c0-.8656.70172-1.5673 1.56733-1.5673h13.4344c.8656 0 1.5673.7017 1.5673 1.5673s-.7017 1.5674-1.5673 1.5674h-13.4344c-.86561 0-1.56733-.7018-1.56733-1.5674z"/><path d="m1.56734 4.22705c-.865617 0-1.56734.70173-1.56734 1.56733 0 .86565.701723 1.56734 1.56734 1.56734h9.67276c.8656 0 1.5673-.70169 1.5673-1.56734 0-.8656-.7017-1.56733-1.5673-1.56733z"/><path d="m10.031 13.855c0-.8656.7017-1.5674 1.5673-1.5674h9.6728c.8656 0 1.5674.7018 1.5674 1.5674s-.7018 1.5673-1.5674 1.5673h-9.6728c-.8656 0-1.5673-.7017-1.5673-1.5673z"/><g clip-rule="evenodd" fill-rule="evenodd"><path d="m35.3223 11.381c0-2.11188 1.7198-3.82387 3.8413-3.82387.7846 0 1.5156.27383 2.1257.7134l.1154.08313v-.49019h1.5653v7.08773h-1.5653v-.4613l-.113.075c-.6092.4043-1.3409.6399-2.1281.6399-2.1215 0-3.8413-1.712-3.8413-3.8238zm3.8413-2.23085c-1.2376 0-2.241.99875-2.241 2.23085 0 1.232 1.0034 2.2308 2.241 2.2308 1.2378 0 2.2411-.9988 2.2411-2.2308 0-1.2321-1.0033-2.23085-2.2411-2.23085z"/><path d="m43.9907 11.381c0-2.11188 1.7199-3.82387 3.8413-3.82387.7847 0 1.5156.27383 2.1261.7134l.1153.08313v-.49019h1.5421v7.08773h-1.5421v-.4613l-.1132.075c-.6092.4043-1.3409.6399-2.1282.6399-2.1214 0-3.8413-1.712-3.8413-3.8238zm3.8413-2.23085c-1.2376 0-2.241.99875-2.241 2.23085 0 1.232 1.0034 2.2308 2.241 2.2308 1.2379 0 2.2414-.9988 2.2414-2.2308 0-1.2321-1.0035-2.23085-2.2414-2.23085z"/><path d="m86.3749 8.20442v-3.75935h1.625v10.54243h-1.625v-.4299l-.0568.0375c-.6147.4081-1.3533.6459-2.1479.6459-2.1419 0-3.878-1.7282-3.878-3.86 0-2.13185 1.7361-3.86007 3.878-3.86007.7946 0 1.5332.23785 2.1479.64594zm-2.2047.98197c-1.2179 0-2.2047.98251-2.2047 2.19461 0 1.212.9868 2.1946 2.2047 2.1946 1.2175 0 2.2043-.9826 2.2043-2.1946 0-1.2121-.9868-2.19461-2.2043-2.19461z"/></g><path d="m79.5301 5.45136c0 .67722-.5515 1.22624-1.232 1.22624-.6801 0-1.2314-.54902-1.2314-1.22624 0-.67725.5513-1.22626 1.2314-1.22626.6805 0 1.232.54901 1.232 1.22626z"/><path d="m77.4382 14.9747v-7.13437h1.7203v7.13437z"/><path d="m72.5142 10.8617c0-1.65229 1.3456-2.99207 3.0061-2.99207h.6211v1.63958h-.6211c-.7502 0-1.3585.60529-1.3585 1.35249v4.1167h-1.6476z"/><path d="m61.0488 10.0488c0-2.9002 2.3619-5.25168 5.2762-5.25168 1.807 0 3.4012.9049 4.3509 2.28018l-1.4871.99714c-.6305-.90405-1.6784-1.49293-2.8638-1.49293-1.9232 0-3.4829 1.55218-3.4829 3.46729 0 1.9152 1.5597 3.4674 3.4829 3.4674 1.5079 0 2.8181-.9322 3.2855-2.1433l.0256-.0668h-2.5785v-1.7844h4.5277v.8922c0 2.7997-2.5665 4.8867-5.2603 4.8867-2.9143 0-5.2762-2.3515-5.2762-5.2518z"/><path d="m53.921 5.77316c.6057-.54193 1.5001-.8862 2.6471-.8862 1.1581 0 2.0549.37789 2.6692.96852.5852.56307.9201 1.32606.9744 2.15869h-1.8023c-.0444-.42091-.2204-.78987-.5182-1.05985-.3247-.29424-.7847-.46174-1.3516-.46174-.5118 0-.9424.12534-1.2482.34666-.3085.22295-.4879.54235-.4879.91251 0 .28365.0978.50954.2691.6896.1679.17639.4012.30352.666.40506.2653.1018.5725.18155.8941.25746.1047.02461.2106.04879.3174.07322.2256.05156.4563.10419.6874.16413.6822.17685 1.3443.41125 1.8364.83788.4853.4211.8151 1.0389.8151 2.0094 0 .8638-.3812 1.6006-1.0548 2.1244-.6758.5254-1.651.84-2.8377.84-1.3807 0-2.3107-.4248-2.9032-1.0382-.5634-.5835-.833-1.3497-.8829-2.1175h1.8185c.0512.3977.2254.7719.5441 1.0537.3486.3085.8583.4963 1.538.4963.5703 0 1.0426-.1087 1.3771-.3254.3401-.2203.5303-.5494.5303-.9622 0-.2802-.0971-.5035-.2667-.6814-.1666-.1743-.3977-.2999-.6596-.4003-.2627-.1007-.5663-.1797-.885-.2549-.103-.0243-.2077-.0482-.3132-.0724-.2234-.0511-.4524-.1033-.681-.1626-.6753-.1751-1.3301-.4069-1.8167-.82784-.4801-.41539-.8061-1.02426-.8061-1.98043 0-.81976.3251-1.56507.9309-2.10657z"/><path d="m28.1713 5.77316c.606-.54193 1.5003-.8862 2.6472-.8862 1.1581 0 2.0551.37789 2.669.96852.5853.56307.9202 1.32606.9746 2.15869h-1.8022c-.0447-.42091-.2204-.78987-.5184-1.05985-.3247-.29424-.7845-.46174-1.3515-.46174-.5116 0-.9422.12534-1.2484.34666-.3084.22295-.4878.54235-.4878.91251 0 .28365.0978.50954.2692.6896.1679.17639.4014.30352.6661.40506.2653.1018.5722.18155.8942.25746.1039.02448.2094.04857.3159.07292l.0013.0003c.2258.05156.4563.10419.6874.16413.6823.17685 1.3445.41125 1.8363.83788.4855.4211.8153 1.0389.8153 2.0094 0 .8638-.3812 1.6006-1.0548 2.1244-.6757.5254-1.651.84-2.8376.84-1.3808 0-2.3109-.4248-2.9033-1.0382-.5634-.5835-.8329-1.3497-.883-2.1175h1.8187c.0509.3977.2253.7719.5438 1.0537.3486.3085.8583.4963 1.5381.4963.5701 0 1.0429-.1087 1.3771-.3254.3401-.2203.5305-.5494.5305-.9622 0-.2802-.097-.5035-.2669-.6814-.1663-.1743-.3975-.2999-.6595-.4003-.2627-.1007-.5664-.1797-.8851-.2549-.103-.0243-.2076-.0482-.3133-.0724-.2234-.0511-.4521-.1033-.6807-.1626-.6752-.1751-1.3304-.4069-1.8169-.82784-.48-.41539-.8062-1.02426-.8062-1.98043 0-.81976.3253-1.56507.9309-2.10657z"/></g></svg>