<svg xmlns="http://www.w3.org/2000/svg" width="88" height="22" fill="none">
  <path fill="#131316"
    d="M21.076 14.495a.35.35 0 0 0 .024.463c1.036 1 2.943 1.542 4.643 1.542 2.654 0 4.752-1.342 4.752-3.647 0-2.384-2.099-2.845-3.98-3.226-1.267-.24-1.88-.32-1.88-.901 0-.481.494-.782 1.267-.782.899 0 1.798.352 2.539 1.002.172.15.437.138.576-.044l1.128-1.468a.353.353 0 0 0-.03-.475c-.914-.847-2.461-1.459-4.193-1.459-2.575 0-4.456 1.423-4.456 3.567 0 2.284 1.842 2.745 3.564 3.085 1.664.3 2.357.38 2.357 1.082 0 .561-.693.842-1.525.842-.997 0-2.165-.439-3.01-1.19-.174-.154-.445-.143-.586.042l-1.19 1.567ZM35.845 16.5c1.95 0 3.744-.934 4.596-2.72a.354.354 0 0 0-.218-.487l-1.927-.626c-.195-.063-.4.047-.495.23-.363.697-1.058 1.058-1.916 1.058-1.208 0-2.06-.821-2.277-2.264h7.069v-.841c0-2.986-1.723-5.35-4.891-5.35-3.01 0-5.227 2.364-5.227 5.49 0 3.286 2.138 5.51 5.286 5.51Zm-.099-8.515c1.153 0 1.765.78 1.8 1.704a.037.037 0 0 1-.036.039h-3.754a.037.037 0 0 1-.036-.048c.324-1.13 1.07-1.695 2.026-1.695ZM44.387 16.48c1.344 0 2.362-.407 3.055-1.107a.038.038 0 0 1 .059.006c.515.82 1.623 1.156 3.246.947a.364.364 0 0 0 .312-.366v-1.617c0-.227-.2-.384-.42-.42-.289-.046-.391-.239-.391-.629V9.227c0-2.465-1.683-3.727-4.416-3.727-2.463 0-4.056 1.312-4.636 2.991a.35.35 0 0 0 .287.456l2.287.348c.192.03.37-.097.438-.28.24-.633.701-.93 1.486-.93 1.03 0 1.445.5 1.445 1.282v.149a.037.037 0 0 1-.03.037l-2.306.395c-2.198.32-4.02 1.202-4.02 3.386 0 1.864 1.505 3.146 3.604 3.146Zm2.752-3.987c0 1.082-.97 1.643-2.02 1.643-.752 0-1.247-.36-1.247-1.022 0-.742.614-1.022 1.445-1.162l1.778-.333a.037.037 0 0 1 .044.037v.837ZM54.828 10.249c0-1.243.812-1.864 1.644-1.864 1.029 0 1.425.782 1.425 1.844v5.675c0 .207.167.376.371.376h2.426a.374.374 0 0 0 .371-.376v-5.655c0-1.243.812-1.864 1.644-1.864 1.01 0 1.425.782 1.425 1.844v5.675c0 .207.166.376.372.376h2.425a.374.374 0 0 0 .371-.376V9.307c0-2.304-1.405-3.807-3.524-3.807-1.576 0-2.597.754-3.196 1.407a.037.037 0 0 1-.058-.004c-.598-.878-1.616-1.403-2.845-1.403-1.276 0-2.205.557-2.784 1.206a.038.038 0 0 1-.067-.026v-.584a.373.373 0 0 0-.371-.376H52.03a.373.373 0 0 0-.37.376v9.808c0 .207.165.376.37.376h2.426a.373.373 0 0 0 .37-.376v-5.655Z" />
</svg>
